<svg width="657.9px" height="120.8px" xmlns="http://www.w3.org/2000/svg" viewBox="-78.9375 14.600000000000001 657.875 120.8" style="background: rgba(0, 0, 0, 0)" preserveAspectRatio="xMidYMid"><defs><linearGradient id="editing-glowing-gradient" x1="0.8146601955249186" x2="0.18533980447508142" y1="0.8885729807284856" y2="0.11142701927151444"><stop offset="0" stop-color="#67ff43"></stop><stop offset="1" stop-color="#051504"></stop></linearGradient><filter id="editing-glowing" x="-100%" y="-100%" width="300%" height="300%"><feGaussianBlur in="SourceGraphic" result="blur" stdDeviation="10"></feGaussianBlur><feMerge><feMergeNode in="blur"></feMergeNode><feMergeNode in="SourceGraphic"></feMergeNode></feMerge></filter></defs><g filter="url(#editing-glowing)"><g transform="matrix(1.4,0,0,2.1,-59,-150.3)"><path d="M 3.5 121.5 L -10.4 121.5 L -2.3 79.3 L 11.8 79.3 L 3.5 121.5 Z M 59.3 122.8 L 59.3 122.8 L 59.3 122.8 Q 51.5 122.8 51.5 116.8 L 51.5 116.8 L 51.5 116.8 Q 51.5 114.2 52.7 109.1 L 52.7 109.1 L 52.7 109.1 Q 53.8 104 54.2 102 L 54.2 102 L 54.2 102 Q 55.1 97.3 55.1 95.8 L 55.1 95.8 L 55.1 95.8 Q 55.1 92.5 52.6 92.5 L 52.6 92.5 L 52.6 92.5 Q 51 92.5 49.5 94.8 L 49.5 94.8 L 49.5 94.8 Q 47.9 97 47.2 101.4 L 47.2 101.4 L 43.3 121.5 L 30.8 122.8 L 34.3 105.4 L 34.3 105.4 Q 34.8 102.5 35.3 99.3 L 35.3 99.3 L 35.3 99.3 Q 35.9 96 35.9 95.5 L 35.9 95.5 L 35.9 95.5 Q 35.9 92.5 33.7 92.5 L 33.7 92.5 L 33.7 92.5 Q 32.2 92.5 30.6 94.7 L 30.6 94.7 L 30.6 94.7 Q 29 96.9 28.1 101.4 L 28.1 101.4 L 24.2 121.5 L 11.6 122.8 L 18.3 88.9 L 28.7 87.6 L 27.7 94.1 L 27.7 94.1 Q 29.3 90.6 32.4 89.1 L 32.4 89.1 L 32.4 89.1 Q 35.5 87.6 40.3 87.6 L 40.3 87.6 L 40.3 87.6 Q 43 87.6 44.8 89 L 44.8 89 L 44.8 89 Q 46.6 90.3 47.2 92.5 L 47.2 92.5 L 47.2 92.5 Q 48.3 90.2 51.1 88.9 L 51.1 88.9 L 51.1 88.9 Q 53.8 87.6 57.3 87.6 L 57.3 87.6 L 57.3 87.6 Q 60.7 87.6 62.4 88.4 L 62.4 88.4 L 62.4 88.4 Q 64.1 89.1 65.1 90.3 L 65.1 90.3 L 65.1 90.3 Q 66.8 92.5 66.8 96.6 L 66.8 96.6 L 66.8 96.6 Q 66.8 100.7 65.1 109.1 L 65.1 109.1 L 65.1 109.1 Q 64.2 113.2 64.2 114.7 L 64.2 114.7 L 64.2 114.7 Q 64.2 116.2 65.1 117.1 L 65.1 117.1 L 65.1 117.1 Q 65.9 118 67.2 118.1 L 67.2 118.1 L 67.2 118.1 Q 66.6 120.3 64.4 121.5 L 64.4 121.5 L 64.4 121.5 Q 62.2 122.8 59.3 122.8 Z M 74.9 119.6 L 74.9 119.6 L 74.9 119.6 Q 73.4 118 72.7 115.3 L 72.7 115.3 L 72.7 115.3 Q 72.1 112.7 72.1 108.4 L 72.1 108.4 L 72.1 108.4 Q 72.1 104.1 73.5 100.2 L 73.5 100.2 L 73.5 100.2 Q 75 96.3 77.7 93.5 L 77.7 93.5 L 77.7 93.5 Q 83.2 87.6 92.3 87.6 L 92.3 87.6 L 92.3 87.6 Q 95.6 87.6 97.9 88.7 L 97.9 88.7 L 108.9 87.6 L 104.1 112.6 L 104.1 112.6 Q 103.9 113.3 103.9 114.8 L 103.9 114.8 L 103.9 114.8 Q 103.9 116.2 104.8 117.1 L 104.8 117.1 L 104.8 117.1 Q 105.7 118 107 118.1 L 107 118.1 L 107 118.1 Q 106.3 120.3 104 121.5 L 104 121.5 L 104 121.5 Q 101.6 122.8 99 122.8 L 99 122.8 L 99 122.8 Q 96.4 122.8 94.6 121.8 L 94.6 121.8 L 94.6 121.8 Q 92.9 120.8 92.4 119.2 L 92.4 119.2 L 92.4 119.2 Q 91.3 120.8 89.2 121.8 L 89.2 121.8 L 89.2 121.8 Q 87 122.8 84.1 122.8 L 84.1 122.8 L 84.1 122.8 Q 81.2 122.8 78.8 122 L 78.8 122 L 78.8 122 Q 76.4 121.3 74.9 119.6 Z M 88.4 93.6 L 88.4 93.6 L 88.4 93.6 Q 87.7 94.8 87.1 96.7 L 87.1 96.7 L 87.1 96.7 Q 86.4 98.7 85.4 103.9 L 85.4 103.9 L 85.4 103.9 Q 84.3 109.1 84.3 112.8 L 84.3 112.8 L 84.3 112.8 Q 84.3 116.5 84.9 117.6 L 84.9 117.6 L 84.9 117.6 Q 85.5 118.7 86.5 118.7 L 86.5 118.7 L 86.5 118.7 Q 88.5 118.7 90 116.8 L 90 116.8 L 90 116.8 Q 91.5 114.8 92.1 111.4 L 92.1 111.4 L 95.5 92.6 L 95.5 92.6 Q 94.2 91.5 92.6 91.5 L 92.6 91.5 L 92.6 91.5 Q 91 91.5 90.1 92 L 90.1 92 L 90.1 92 Q 89.2 92.5 88.4 93.6 Z M 116.6 94.8 L 116.6 94.8 L 116.6 94.8 Q 118.8 91.7 122.1 89.7 L 122.1 89.7 L 122.1 89.7 Q 125.4 87.6 129.4 87.6 L 129.4 87.6 L 129.4 87.6 Q 133.5 87.6 135.4 88.9 L 135.4 88.9 L 147.9 87.6 L 143.6 112.2 L 143.6 112.2 Q 141.3 124.7 136.6 129.7 L 136.6 129.7 L 136.6 129.7 Q 132 134.3 123.2 134.3 L 123.2 134.3 L 123.2 134.3 Q 116.5 134.3 112.7 132.2 L 112.7 132.2 L 112.7 132.2 Q 108.8 130.1 108.8 126.6 L 108.8 126.6 L 108.8 126.6 Q 108.8 124 110.8 122.5 L 110.8 122.5 L 110.8 122.5 Q 112.8 121 115.9 121 L 115.9 121 L 115.9 121 Q 118.5 121 120.6 122.2 L 120.6 122.2 L 120.6 122.2 Q 121.8 122.8 122.4 123.7 L 122.4 123.7 L 122.4 123.7 Q 120.9 125 120.9 127.1 L 120.9 127.1 L 120.9 127.1 Q 120.9 129.9 123.5 129.9 L 123.5 129.9 L 123.5 129.9 Q 127.8 129.9 130.2 119.7 L 130.2 119.7 L 130.2 119.7 Q 130.9 117 131.5 114.2 L 131.5 114.2 L 131.5 114.2 Q 128.6 117.8 122.1 117.8 L 122.1 117.8 L 122.1 117.8 Q 117.5 117.8 114.9 115.6 L 114.9 115.6 L 114.9 115.6 Q 112.3 113.4 112.3 108.3 L 112.3 108.3 L 112.3 108.3 Q 112.3 105.1 113.4 101.5 L 113.4 101.5 L 113.4 101.5 Q 114.4 97.9 116.6 94.8 Z M 124.9 108.5 L 124.9 108.5 L 124.9 108.5 Q 124.9 112.8 127.2 112.8 L 127.2 112.8 L 127.2 112.8 Q 128.7 112.8 130.2 111.2 L 130.2 111.2 L 130.2 111.2 Q 131.3 109.8 131.8 107.8 L 131.8 107.8 L 135.1 91.4 L 135.1 91.4 Q 134.7 91.3 134.4 91.2 L 134.4 91.2 L 134.4 91.2 Q 133.8 90.9 132.9 90.9 L 132.9 90.9 L 132.9 90.9 Q 129 90.9 126.7 97.3 L 126.7 97.3 L 126.7 97.3 Q 124.9 102.3 124.9 108.5 Z M 176.3 110.7 L 176.3 110.7 L 176.3 110.7 Q 177.9 111.8 177.9 114.2 L 177.9 114.2 L 177.9 114.2 Q 177.9 116.6 176.7 118.1 L 176.7 118.1 L 176.7 118.1 Q 175.5 119.7 173.5 120.7 L 173.5 120.7 L 173.5 120.7 Q 169.4 122.8 165 122.8 L 165 122.8 L 165 122.8 Q 160.6 122.8 158 121.9 L 158 121.9 L 158 121.9 Q 155.4 120.9 153.7 119.1 L 153.7 119.1 L 153.7 119.1 Q 150.3 115.7 150.3 109.5 L 150.3 109.5 L 150.3 109.5 Q 150.3 99.8 155.5 94 L 155.5 94 L 155.5 94 Q 161.2 87.6 171 87.6 L 171 87.6 L 171 87.6 Q 177 87.6 180 90.2 L 180 90.2 L 180 90.2 Q 182.3 92.1 182.3 95.2 L 182.3 95.2 L 182.3 95.2 Q 182.3 106.5 162.8 106.5 L 162.8 106.5 L 162.8 106.5 Q 162.6 108.2 162.6 109.6 L 162.6 109.6 L 162.6 109.6 Q 162.6 112.5 163.9 113.6 L 163.9 113.6 L 163.9 113.6 Q 165.2 114.8 167.6 114.8 L 167.6 114.8 L 167.6 114.8 Q 170.1 114.8 172.7 113.6 L 172.7 113.6 L 172.7 113.6 Q 175.2 112.5 176.3 110.7 Z M 163.3 103.7 L 163.3 103.7 L 163.3 103.7 Q 167.8 103.7 170.4 100.9 L 170.4 100.9 L 170.4 100.9 Q 173.1 98.2 173.1 94 L 173.1 94 L 173.1 94 Q 173.1 92.5 172.5 91.7 L 172.5 91.7 L 172.5 91.7 Q 172 90.9 170.9 90.9 L 170.9 90.9 L 170.9 90.9 Q 169.8 90.9 168.9 91.3 L 168.9 91.3 L 168.9 91.3 Q 167.9 91.7 167 93.1 L 167 93.1 L 167 93.1 Q 164.6 96.3 163.3 103.7 Z M 203.6 99.1 L 203.6 99.1 L 203.6 99.1 Q 204.5 96.7 204.5 94.7 L 204.5 94.7 L 204.5 94.7 Q 204.5 90.9 201.4 90.9 L 201.4 90.9 L 201.4 90.9 Q 199.8 90.9 198.5 92.3 L 198.5 92.3 L 198.5 92.3 Q 197.2 93.8 197.2 95.6 L 197.2 95.6 L 197.2 95.6 Q 197.2 96.8 198.2 97.9 L 198.2 97.9 L 198.2 97.9 Q 199.7 99.3 203.5 101.6 L 203.5 101.6 L 203.5 101.6 Q 207.2 103.9 208.7 105.8 L 208.7 105.8 L 208.7 105.8 Q 210.1 107.6 210.1 110.2 L 210.1 110.2 L 210.1 110.2 Q 210.1 112.8 208.9 115.2 L 208.9 115.2 L 208.9 115.2 Q 207.6 117.6 205.4 119.2 L 205.4 119.2 L 205.4 119.2 Q 200.6 122.8 192.9 122.8 L 192.9 122.8 L 192.9 122.8 Q 188.7 122.8 185.5 120.6 L 185.5 120.6 L 185.5 120.6 Q 182.3 118.5 182.3 116 L 182.3 116 L 182.3 116 Q 182.3 113.5 184.2 112.1 L 184.2 112.1 L 184.2 112.1 Q 186 110.6 188.7 110.6 L 188.7 110.6 L 188.7 110.6 Q 191.4 110.6 193 111.6 L 193 111.6 L 193 111.6 Q 192.2 113.7 192.2 115.1 L 192.2 115.1 L 192.2 115.1 Q 192.2 119.4 195.8 119.4 L 195.8 119.4 L 195.8 119.4 Q 197.3 119.4 198.3 118.4 L 198.3 118.4 L 198.3 118.4 Q 199.4 117.4 199.4 115.8 L 199.4 115.8 L 199.4 115.8 Q 199.4 112.5 193.9 109.1 L 193.9 109.1 L 193.9 109.1 Q 189.4 106.1 188.4 105 L 188.4 105 L 188.4 105 Q 186.6 102.9 186.6 100.4 L 186.6 100.4 L 186.6 100.4 Q 186.6 97.8 187.9 95.4 L 187.9 95.4 L 187.9 95.4 Q 189.1 92.9 191.3 91.2 L 191.3 91.2 L 191.3 91.2 Q 196 87.6 204.1 87.6 L 204.1 87.6 L 204.1 87.6 Q 208.3 87.6 210.7 89.3 L 210.7 89.3 L 210.7 89.3 Q 213.2 90.9 213.2 93.8 L 213.2 93.8 L 213.2 93.8 Q 213.2 96.6 211.5 98.2 L 211.5 98.2 L 211.5 98.2 Q 209.8 99.8 206.7 99.8 L 206.7 99.8 L 206.7 99.8 Q 204.6 99.8 203.6 99.1 Z M 254.7 100.9 L 267.6 99.8 L 267.6 99.8 Q 263 109.9 263 121.6 L 263 121.6 L 263 121.6 Q 261.3 122.8 258.7 122.8 L 258.7 122.8 L 258.7 122.8 Q 256.2 122.8 254.6 121.6 L 254.6 121.6 L 254.6 121.6 Q 253 120.4 252.7 119.2 L 252.7 119.2 L 252.7 119.2 Q 251.1 120.9 248.5 121.9 L 248.5 121.9 L 248.5 121.9 Q 245.9 122.8 243.1 122.8 L 243.1 122.8 L 243.1 122.8 Q 240.4 122.8 238 121.9 L 238 121.9 L 238 121.9 Q 235.6 121 233.7 119 L 233.7 119 L 233.7 119 Q 229.6 114.7 229.6 106.4 L 229.6 106.4 L 229.6 106.4 Q 229.6 93.6 236.5 86 L 236.5 86 L 236.5 86 Q 243.5 78 256 78 L 256 78 L 256 78 Q 264.7 78 267.7 82.5 L 267.7 82.5 L 267.7 82.5 Q 268.7 83.9 268.7 85.6 L 268.7 85.6 L 268.7 85.6 Q 268.7 87.3 267.9 88.7 L 267.9 88.7 L 267.9 88.7 Q 267.2 90.2 266.1 91.3 L 266.1 91.3 L 266.1 91.3 Q 263.3 93.9 259.9 93.9 L 259.9 93.9 L 259.9 93.9 Q 258.6 93.9 257.3 93.4 L 257.3 93.4 L 257.3 93.4 Q 257.5 91.5 257.5 89.3 L 257.5 89.3 L 257.5 89.3 Q 257.5 87 257.4 86 L 257.4 86 L 257.4 86 Q 257.2 85 256.8 84.2 L 256.8 84.2 L 256.8 84.2 Q 256 82.4 254.2 82.4 L 254.2 82.4 L 254.2 82.4 Q 252.4 82.4 250.3 84.4 L 250.3 84.4 L 250.3 84.4 Q 248.3 86.3 246.7 89.5 L 246.7 89.5 L 246.7 89.5 Q 243.2 96.7 243.2 105.3 L 243.2 105.3 L 243.2 105.3 Q 243.2 109.3 244.7 112.1 L 244.7 112.1 L 244.7 112.1 Q 246.4 115.2 249.4 115.2 L 249.4 115.2 L 249.4 115.2 Q 250.4 115.2 251.3 114.7 L 251.3 114.7 L 251.3 114.7 Q 252.2 114.2 252.6 113.8 L 252.6 113.8 L 254.7 100.9 Z M 273.5 119.6 L 273.5 119.6 L 273.5 119.6 Q 272 118 271.3 115.3 L 271.3 115.3 L 271.3 115.3 Q 270.7 112.7 270.7 108.4 L 270.7 108.4 L 270.7 108.4 Q 270.7 104.1 272.1 100.2 L 272.1 100.2 L 272.1 100.2 Q 273.6 96.3 276.3 93.5 L 276.3 93.5 L 276.3 93.5 Q 281.8 87.6 290.9 87.6 L 290.9 87.6 L 290.9 87.6 Q 294.2 87.6 296.5 88.7 L 296.5 88.7 L 307.5 87.6 L 302.7 112.6 L 302.7 112.6 Q 302.5 113.3 302.5 114.8 L 302.5 114.8 L 302.5 114.8 Q 302.5 116.2 303.4 117.1 L 303.4 117.1 L 303.4 117.1 Q 304.3 118 305.5 118.1 L 305.5 118.1 L 305.5 118.1 Q 304.9 120.3 302.6 121.5 L 302.6 121.5 L 302.6 121.5 Q 300.2 122.8 297.6 122.8 L 297.6 122.8 L 297.6 122.8 Q 295 122.8 293.2 121.8 L 293.2 121.8 L 293.2 121.8 Q 291.5 120.8 291 119.2 L 291 119.2 L 291 119.2 Q 289.9 120.8 287.8 121.8 L 287.8 121.8 L 287.8 121.8 Q 285.6 122.8 282.7 122.8 L 282.7 122.8 L 282.7 122.8 Q 279.8 122.8 277.4 122 L 277.4 122 L 277.4 122 Q 275 121.3 273.5 119.6 Z M 287 93.6 L 287 93.6 L 287 93.6 Q 286.3 94.8 285.6 96.7 L 285.6 96.7 L 285.6 96.7 Q 285 98.7 283.9 103.9 L 283.9 103.9 L 283.9 103.9 Q 282.9 109.1 282.9 112.8 L 282.9 112.8 L 282.9 112.8 Q 282.9 116.5 283.5 117.6 L 283.5 117.6 L 283.5 117.6 Q 284 118.7 285.1 118.7 L 285.1 118.7 L 285.1 118.7 Q 287.1 118.7 288.6 116.8 L 288.6 116.8 L 288.6 116.8 Q 290.1 114.8 290.7 111.4 L 290.7 111.4 L 294.1 92.6 L 294.1 92.6 Q 292.7 91.5 291.2 91.5 L 291.2 91.5 L 291.2 91.5 Q 289.6 91.5 288.7 92 L 288.7 92 L 288.7 92 Q 287.8 92.5 287 93.6 Z M 326.2 118 L 326.2 118 L 326.2 118 Q 324.2 122.8 317.9 122.8 L 317.9 122.8 L 317.9 122.8 Q 314.7 122.8 312.7 120.6 L 312.7 120.6 L 312.7 120.6 Q 311 118.7 311 116.6 L 311 116.6 L 311 116.6 Q 311 111.8 313.2 101.3 L 313.2 101.3 L 317.9 76.7 L 330.9 75.5 L 324.7 107.8 L 324.7 107.8 Q 323.6 112.6 323.6 114.2 L 323.6 114.2 L 323.6 114.2 Q 323.6 117.9 326.2 118 Z M 347 118 L 347 118 L 347 118 Q 345 122.8 338.6 122.8 L 338.6 122.8 L 338.6 122.8 Q 335.4 122.8 333.4 120.6 L 333.4 120.6 L 333.4 120.6 Q 331.7 118.7 331.7 116.6 L 331.7 116.6 L 331.7 116.6 Q 331.7 111.8 334 101.3 L 334 101.3 L 338.6 76.7 L 351.6 75.5 L 345.4 107.8 L 345.4 107.8 Q 344.3 112.6 344.3 114.2 L 344.3 114.2 L 344.3 114.2 Q 344.3 117.9 347 118 Z M 378.3 110.7 L 378.3 110.7 L 378.3 110.7 Q 379.9 111.8 379.9 114.2 L 379.9 114.2 L 379.9 114.2 Q 379.9 116.6 378.7 118.1 L 378.7 118.1 L 378.7 118.1 Q 377.5 119.7 375.5 120.7 L 375.5 120.7 L 375.5 120.7 Q 371.4 122.8 367 122.8 L 367 122.8 L 367 122.8 Q 362.6 122.8 360 121.9 L 360 121.9 L 360 121.9 Q 357.4 120.9 355.7 119.1 L 355.7 119.1 L 355.7 119.1 Q 352.3 115.7 352.3 109.5 L 352.3 109.5 L 352.3 109.5 Q 352.3 99.8 357.5 94 L 357.5 94 L 357.5 94 Q 363.1 87.6 372.9 87.6 L 372.9 87.6 L 372.9 87.6 Q 379 87.6 382 90.2 L 382 90.2 L 382 90.2 Q 384.3 92.1 384.3 95.2 L 384.3 95.2 L 384.3 95.2 Q 384.3 106.5 364.8 106.5 L 364.8 106.5 L 364.8 106.5 Q 364.6 108.2 364.6 109.6 L 364.6 109.6 L 364.6 109.6 Q 364.6 112.5 365.9 113.6 L 365.9 113.6 L 365.9 113.6 Q 367.2 114.8 369.6 114.8 L 369.6 114.8 L 369.6 114.8 Q 372 114.8 374.6 113.6 L 374.6 113.6 L 374.6 113.6 Q 377.2 112.5 378.3 110.7 Z M 365.3 103.7 L 365.3 103.7 L 365.3 103.7 Q 369.8 103.7 372.4 100.9 L 372.4 100.9 L 372.4 100.9 Q 375.1 98.2 375.1 94 L 375.1 94 L 375.1 94 Q 375.1 92.5 374.5 91.7 L 374.5 91.7 L 374.5 91.7 Q 374 90.9 372.9 90.9 L 372.9 90.9 L 372.9 90.9 Q 371.8 90.9 370.9 91.3 L 370.9 91.3 L 370.9 91.3 Q 369.9 91.7 369 93.1 L 369 93.1 L 369 93.1 Q 366.6 96.3 365.3 103.7 Z M 406.5 103.6 L 406.5 103.6 L 406.5 103.6 Q 408.8 99.5 408.8 95.3 L 408.8 95.3 L 408.8 95.3 Q 408.8 92.5 406.8 92.5 L 406.8 92.5 L 406.8 92.5 Q 405.3 92.5 403.7 95.2 L 403.7 95.2 L 403.7 95.2 Q 402 97.8 401.5 101.2 L 401.5 101.2 L 398.2 121.5 L 384.9 122.8 L 391.4 88.9 L 402 87.6 L 400.8 94.1 L 400.8 94.1 Q 404 87.6 411 87.6 L 411 87.6 L 411 87.6 Q 414.7 87.6 416.7 89.5 L 416.7 89.5 L 416.7 89.5 Q 418.8 91.5 418.8 95.4 L 418.8 95.4 L 418.8 95.4 Q 418.8 99.3 416.2 101.8 L 416.2 101.8 L 416.2 101.8 Q 413.6 104.3 409.2 104.3 L 409.2 104.3 L 409.2 104.3 Q 407.2 104.3 406.5 103.6 Z M 440.1 114.3 L 440.1 114.3 L 440.1 114.3 Q 436.8 117.8 430.7 117.8 L 430.7 117.8 L 430.7 117.8 Q 423.1 117.8 421.5 112.2 L 421.5 112.2 L 421.5 112.2 Q 421 110.5 421 108.7 L 421 108.7 L 421 108.7 Q 421 106.8 421.4 104.9 L 421.4 104.9 L 424.4 88.9 L 437.4 87.6 L 433.9 106.2 L 433.9 106.2 Q 433.7 107.1 433.5 108 L 433.5 108 L 433.5 108 Q 433.4 108.9 433.4 109.8 L 433.4 109.8 L 433.4 109.8 Q 433.4 110.7 433.7 111.3 L 433.7 111.3 L 433.7 111.3 Q 434 111.9 434.4 112.3 L 434.4 112.3 L 434.4 112.3 Q 435.2 112.8 436.6 112.8 L 436.6 112.8 L 436.6 112.8 Q 438 112.8 439.1 111.2 L 439.1 111.2 L 439.1 111.2 Q 440.3 109.5 440.9 106.6 L 440.9 106.6 L 444.4 88.9 L 457 87.6 L 452.2 112.8 L 452.2 112.8 Q 449.9 125.1 445 129.9 L 445 129.9 L 445 129.9 Q 442.5 132.4 439.3 133.4 L 439.3 133.4 L 439.3 133.4 Q 436 134.4 431.9 134.4 L 431.9 134.4 L 431.9 134.4 Q 425.2 134.4 421.3 132.3 L 421.3 132.3 L 421.3 132.3 Q 417.5 130.2 417.5 126.7 L 417.5 126.7 L 417.5 126.7 Q 417.5 124 419.5 122.5 L 419.5 122.5 L 419.5 122.5 Q 421.5 121 424.5 121 L 424.5 121 L 424.5 121 Q 427.2 121 429.3 122.2 L 429.3 122.2 L 429.3 122.2 Q 430.5 122.9 431.1 123.8 L 431.1 123.8 L 431.1 123.8 Q 429.6 125.1 429.6 127.2 L 429.6 127.2 L 429.6 127.2 Q 429.6 130 432.1 130 L 432.1 130 L 432.1 130 Q 436.4 130 438.8 120.3 L 438.8 120.3 L 438.8 120.3 Q 439.5 117.4 440.1 114.3 Z" fill="url(#editing-glowing-gradient)"></path></g></g><style>text {
  font-size: 64px;
  font-family: Arial Black;
  dominant-baseline: central;
  text-anchor: middle;
}</style></svg>